<svg clip-rule="evenodd" fill-rule="evenodd" stroke-linejoin="round" stroke-miterlimit="2" viewBox="0 0 330 110" xmlns="http://www.w3.org/2000/svg"><path d="m321.169 179.279.685-1.603c.661.349 1.402.52 2.149.497 1.203 0 1.976-.636 2.806-2.556l-6.214-13.607h2.249l4.971 11.377 4.382-11.377h2.161l-5.729 14.112c-1.158 2.806-2.485 3.848-4.542 3.848-1.014.011-2.016-.226-2.918-.691zm-203.069-1.24.926-1.58c1.517 1.13 3.36 1.739 5.251 1.734 1.338.155 2.677-.303 3.639-1.245.963-.941 1.453-2.268 1.333-3.609v-1.603c-1.196 1.787-3.206 2.867-5.356 2.879-1.709.027-3.358-.64-4.567-1.848-1.21-1.208-1.877-2.858-1.848-4.567v-.045c.01-3.541 2.926-6.449 6.467-6.449 2.105 0 4.082 1.028 5.292 2.75v-2.459h2.032v11.279c.091 1.774-.541 3.511-1.752 4.81-1.419 1.287-3.299 1.948-5.211 1.832-2.212.027-4.38-.629-6.206-1.879zm-57.729-6.347v-.041c0-2.938 2.373-4.469 5.841-4.469 1.409-.014 2.811.183 4.161.586v-.402c0-2.437-1.467-3.709-4.029-3.709-1.439.008-2.857.346-4.145.986l-.618-1.667c1.544-.765 3.244-1.165 4.967-1.167 1.612-.112 3.203.432 4.41 1.507 1.008 1.082 1.526 2.533 1.431 4.009v8.343h-2.004v-2.032c-1.164 1.52-2.993 2.389-4.907 2.33-1.251.144-2.507-.231-3.474-1.038-.966-.808-1.557-1.979-1.633-3.236zm208.919 2.525c1.648.019 3.224-.688 4.305-1.932l1.271 1.138c-1.376 1.671-3.448 2.617-5.612 2.562-3.787-.185-6.803-3.352-6.803-7.143 0-3.688 2.852-6.802 6.526-7.125 1.836.028 3.577.831 4.79 2.21 1.213 1.378 1.789 3.207 1.584 5.031.003.237-.008.472-.032.708h-10.824c.123 2.54 2.252 4.56 4.795 4.551zm-185.861-5.322v-.043c.075-3.853 3.265-6.982 7.119-6.982 3.832 0 7.012 3.094 7.117 6.925v.057c.011 1.898-.742 3.724-2.088 5.062-1.346 1.339-3.174 2.083-5.072 2.065-1.884.024-3.7-.715-5.031-2.049-1.332-1.334-2.07-3.15-2.045-5.035zm66.518 0v-.043c.073-3.843 3.247-6.968 7.091-6.982 3.844-.017 7.042 3.083 7.145 6.925v.057c.013 2.892-1.744 5.516-4.423 6.605-.871.354-1.804.532-2.745.522-2.868.033-5.478-1.704-6.555-4.363-.351-.864-.525-1.789-.513-2.721zm-112.612 1.589v-8.478h2.033v7.973c-.022.162-.033.325-.033.489 0 1.997 1.643 3.64 3.64 3.64.056 0 .113-.001.169-.004 1.717.038 3.277-1.029 3.864-2.643.189-.524.268-1.082.23-1.638v-7.817h2.004v13.654h-2.004v-2.376c-.462.828-1.141 1.514-1.964 1.984-.823.472-1.759.711-2.707.689-1.451.077-2.866-.485-3.87-1.536-1.005-1.051-1.503-2.49-1.362-3.937zm-36.665-4.012-.003-.31c0-5.106 4.201-9.307 9.307-9.307h.044c2.707-.079 5.327.982 7.217 2.922l-1.432 1.543c-1.505-1.608-3.61-2.525-5.813-2.533-1.965.019-3.839.837-5.188 2.266-1.351 1.427-2.064 3.344-1.976 5.307l-.007.378c0 3.956 3.216 7.228 7.171 7.296 2.278 0 4.452-.97 5.974-2.666l1.375 1.35c-1.875 2.113-4.585 3.299-7.409 3.244-1.237.005-2.463-.238-3.604-.717-3.512-1.468-5.769-4.968-5.656-8.773zm203.394 1.45v-10.751h2.093v10.616c0 4.009 2.112 6.242 5.656 6.242 3.4 0 5.573-2.062 5.573-6.107v-10.751h2.092v10.596c.127 2.108-.617 4.179-2.058 5.724-1.44 1.546-3.454 2.435-5.567 2.457-2.112.019-4.143-.828-5.615-2.343-1.471-1.516-2.258-3.572-2.174-5.683zm85.037 6.002 1.027-1.462c1.345 1.079 3.006 1.693 4.73 1.748 1.644 0 2.831-.846 2.831-2.173v-.049c0-1.367-1.604-1.904-3.4-2.406-2.149-.605-4.526-1.35-4.526-3.852v-.055c.099-2.193 1.93-3.943 4.125-3.943.175 0 .351.012.525.034 1.746.033 3.447.555 4.911 1.507l-.926 1.535c-1.195-.817-2.598-1.278-4.045-1.331-1.603 0-2.638.85-2.638 2.004v.053c0 1.299 1.692 1.8 3.52 2.349 2.113.642 4.386 1.452 4.386 3.909v.055c0 2.594-2.149 4.089-4.867 4.089-2.053-.038-4.038-.745-5.653-2.012zm22.583-1.887v-8.243h-1.896v-1.797h1.896v-4.124h2.037v4.124h4.33v1.797h-4.314v7.973c-.046.311-.018.629.081.928.308.927 1.251 1.501 2.216 1.347.697.01 1.385-.152 2.005-.47v1.736c-.756.399-1.6.6-2.454.585-.146.018-.292.028-.439.028-1.912 0-3.485-1.573-3.485-3.485 0-.133.008-.267.023-.399zm-64.788-10.031h2.241l4.594 11.332 4.626-11.332h2.189l-5.937 13.765h-1.808zm-225.946-5.633h2.045v8.018c.456-.833 1.134-1.524 1.958-1.995.824-.472 1.763-.707 2.712-.679 1.452-.074 2.866.487 3.872 1.537 1.007 1.05 1.505 2.489 1.364 3.936v8.478h-2.037v-7.977c.143-1.07-.197-2.149-.927-2.944-.729-.796-1.775-1.228-2.853-1.178-.031-.001-.061-.001-.092-.001-2.198 0-4.007 1.809-4.007 4.007 0 .092.004.185.01.277v7.816h-2.045zm115.149 0h2.033v13.323l7.372-7.689h2.534l-5.725 5.86 5.921 7.793h-2.433l-4.891-6.365-2.778 2.805v3.568h-2.033zm143.117 5.636h2.048v3.567c.856-2.315 3.093-3.847 5.561-3.808v2.197h-.149c-1.584.01-3.089.703-4.126 1.9-1.036 1.199-1.505 2.789-1.286 4.358v5.44h-2.048zm-54.839 0h2.044v2.377c.931-1.696 2.741-2.732 4.675-2.674 1.451-.076 2.866.485 3.87 1.536 1.005 1.051 1.502 2.49 1.361 3.937v8.478h-2.036v-7.977c.021-.158.031-.317.031-.476 0-2.002-1.647-3.649-3.649-3.649l-.251.002c-2.2 0-4.01 1.81-4.01 4.01 0 .091.003.181.009.272v7.818h-2.044zm-45.197 0h2.048v2.377c.928-1.697 2.738-2.733 4.671-2.674 2.216-.113 4.254 1.26 4.983 3.355.235.68.321 1.402.252 2.118v8.478h-2.032v-7.977c.212-1.635-.707-3.22-2.23-3.85-.493-.204-1.026-.297-1.559-.272-1.125-.025-2.21.426-2.986 1.241-.777.814-1.176 1.918-1.099 3.04v7.818h-2.048zm-11.009 0h2.032v3.567c.863-2.315 3.103-3.845 5.573-3.808v2.197h-.161c-2.417.014-4.555 1.622-5.239 3.94-.222.752-.281 1.542-.173 2.318v5.44h-2.032zm-66.508 0h2.032v2.377c.936-1.692 2.743-2.725 4.675-2.674 1.451-.074 2.865.488 3.869 1.538 1.003 1.051 1.5 2.489 1.362 3.935v8.478h-2.032v-7.977c.142-1.07-.198-2.15-.928-2.946s-1.778-1.228-2.857-1.177c-1.125-.025-2.211.426-2.988 1.24-.779.813-1.179 1.918-1.101 3.041v7.819h-2.032zm-22.418-5.636h-2.037v19.287h2.037zm-24.924 0h2.04v19.287h-2.036zm249.578 5.632h2.033v13.653h-2.033zm-62.737 0h2.033v13.653h-2.021zm-170.769 8.636v-1.266c-1.294-.387-2.638-.583-3.989-.582-2.534 0-4.009 1.107-4.009 2.755v.047c0 1.707 1.604 2.715 3.44 2.715.541.066 1.091.022 1.615-.128 1.06-.3 1.954-1.019 2.474-1.99.258-.481.418-1.008.469-1.551zm91.697-1.746v-.043c.072-2.107-1.153-4.057-3.084-4.905-.628-.275-1.305-.421-1.991-.431-2.745.019-4.993 2.283-4.993 5.028l.006.308c-.073 2.095 1.147 4.032 3.069 4.87.624.273 1.297.419 1.978.429 1.371-.001 2.684-.565 3.629-1.558.947-.991 1.448-2.328 1.386-3.698zm-66.513 0v-.043c.047-1.383-.464-2.729-1.417-3.733-.472-.497-1.038-.894-1.666-1.168-.627-.276-1.304-.424-1.989-.435-1.371.01-2.68.579-3.622 1.574-.942.996-1.437 2.336-1.369 3.705l-.003.241c0 2.782 2.269 5.08 5.05 5.115 1.371-.001 2.684-.565 3.629-1.558.947-.991 1.449-2.328 1.387-3.698zm33.728-.703v-.06c-.068-1.952-1.323-3.676-3.16-4.342-.598-.215-1.233-.309-1.868-.276-.071-.003-.142-.005-.213-.005-2.47 0-4.502 2.032-4.502 4.502l.001.187c0 2.533 2.084 4.617 4.617 4.617.032 0 .065 0 .097-.001 1.276.056 2.523-.4 3.462-1.266.939-.865 1.497-2.068 1.55-3.344zm143.97-.156c.035-1.186-.405-2.339-1.222-3.199-.816-.861-1.942-1.362-3.128-1.392-2.436.141-4.381 2.151-4.442 4.591zm-32.249-11.264h2.329v2.242h-2.329zm62.745 0h2.317v2.242h-2.317zm-240.333-30.385-.003-.357c0-7.918 6.516-14.434 14.434-14.434.134 0 .268.002.402.006 4.198-.201 8.287 1.406 11.225 4.411l-3.985 4.594c-1.909-1.979-4.52-3.131-7.268-3.208-2.28.044-4.448 1.011-6.003 2.679-1.555 1.669-2.366 3.9-2.247 6.178v.079c-.137 2.29.666 4.539 2.223 6.224.77.835 1.701 1.505 2.737 1.972 1.036.465 2.155.717 3.29.74 2.842-.03 5.548-1.235 7.473-3.326l3.973 4.009c-1.431 1.673-3.223 2.999-5.241 3.878-2.018.878-4.21 1.285-6.409 1.192-3.898.072-7.662-1.45-10.415-4.211-2.754-2.76-4.267-6.528-4.186-10.426zm130.03 0v-.08c-.038-1.952.321-3.891 1.055-5.7 1.481-3.656 4.398-6.549 8.067-7.999 1.816-.718 3.759-1.06 5.711-1.006 4.192-.202 8.276 1.406 11.205 4.411l-3.973 4.594c-1.908-1.98-4.52-3.133-7.268-3.209-1.129.022-2.242.272-3.273.733-3.171 1.417-5.154 4.657-4.974 8.125v.078c-.136 2.289.667 4.538 2.223 6.223 1.554 1.686 3.731 2.666 6.024 2.713 2.842-.028 5.549-1.233 7.472-3.325l3.981 4.009c-1.433 1.672-3.226 2.997-5.246 3.875-2.019.879-4.212 1.287-6.412 1.194-5.938.109-11.356-3.485-13.564-8.998-.719-1.791-1.069-3.709-1.028-5.638zm57.897 1.951v-16.259h6.246v16.086c0 4.627 2.305 7.026 6.122 7.026 3.816 0 6.133-2.318 6.133-6.816v-16.296h6.25v16.035c.441 3.452-.717 6.923-3.143 9.418-2.426 2.494-5.861 3.751-9.324 3.41-1.682.163-3.379-.052-4.966-.632-4.909-1.797-7.957-6.783-7.318-11.972zm-239.166-16.447h5.757l12.192 28.626h-6.543l-2.598-6.374h-12.027l-2.606 6.374h-6.374zm82.873.188h6.254v11.247h11.538v-11.247h6.246v28.423h-6.246v-11.409h-11.538v11.409h-6.254zm136.641 5.784h-8.647v-5.784h23.545v5.768h-8.644v22.655h-6.254zm-64.608-5.784h21.448v5.563h-15.234v5.769h13.402v5.565h-13.402v5.96h15.434v5.566h-21.648zm-20.093 5.784h-8.664v-5.784h23.561v5.768h-8.651v22.655h-6.246zm165.67-5.784h21.44v5.563h-15.234v5.769h13.402v5.565h-13.402v5.96h15.435v5.566h-21.649zm-179.805 0h-6.258v28.423h6.258zm150.042-.001h12.989c3.034-.193 6.022.844 8.283 2.877 1.657 1.749 2.54 4.095 2.445 6.503v.08c.183 3.966-2.325 7.593-6.101 8.821l6.947 10.142h-7.312l-6.09-9.093h-4.915v9.093h-6.246zm-247.985-.001h13.009c3.036-.189 6.024.848 8.29 2.878 1.651 1.751 2.529 4.097 2.434 6.502v.081c.183 3.963-2.32 7.587-6.09 8.82l6.947 10.142h-7.312l-6.085-9.093h-4.927v9.093h-6.25zm-16.168 16.55-3.768-9.22-3.781 9.22zm276.745-2.739c3.031 0 4.783-1.632 4.783-4.009v-.084c0-2.682-1.86-4.066-4.911-4.066h-6.218v8.167zm-247.989-.001c3.05 0 4.79-1.631 4.79-4.009v-.084c0-2.682-1.864-4.066-4.915-4.066h-6.214v8.167zm-45.081-53.28h11.093c5.962-.394 11.56 3.023 13.936 8.505.772 1.78 1.17 3.7 1.169 5.64v.089c0 7.806-6.424 14.23-14.23 14.23-.292 0-.584-.009-.875-.027h-11.093zm116.957 0h12.989c3.037-.195 6.026.848 8.282 2.891.822.865 1.462 1.886 1.883 3.003.42 1.117.611 2.307.563 3.5v.08c.19 3.968-2.322 7.598-6.102 8.819l6.947 10.155h-7.312l-6.09-9.092h-4.914v9.092h-6.246zm-22.739-.188h5.761l12.187 28.629h-6.53l-2.594-6.376h-12.027l-2.606 6.376h-6.378zm-34.444.19h11.625c1.381-.164 2.78-.03 4.105.391 2.678.854 4.859 2.825 5.979 5.403.554 1.275.828 2.654.805 4.044v.081c0 6.578-5.116 9.987-11.494 9.987h-4.755v8.53h-6.265zm176.927-.002h5.769l13.318 17.516v-17.516h6.169v28.437h-5.312l-13.766-18.074v18.074h-6.178zm39.103 5.769h-8.647v-5.769h23.556v5.769h-8.647v22.668h-6.262zm-102.364-5.769h6.739l7.472 12.027 7.473-12.027h6.727v28.437h-6.214v-18.563l-7.998 12.144h-.16l-7.926-12.026v18.441h-6.125zm-20.098 5.769h-8.659v-5.769h23.557v5.769h-8.644v22.668h-6.254zm-121.178-5.769h21.444v5.566h-15.234v5.768h13.401v5.566h-13.401v5.976h15.434v5.561h-21.648zm176.922 0h21.44v5.566h-15.234v5.768h13.418v5.566h-13.398v5.976h15.435v5.561h-21.649zm123.514 22.633h-25.593v4.41h25.593zm-321.507.158c2.296.137 4.546-.711 6.181-2.329s2.505-3.859 2.39-6.157v-.08c.117-2.306-.749-4.557-2.381-6.191-.808-.808-1.777-1.437-2.843-1.846-1.066-.411-2.206-.593-3.347-.535h-4.831v17.138zm89.696-6.254-3.768-9.219-3.785 9.219zm205.472-9.088v-.055c.016-2.133.895-4.172 2.436-5.647.763-.731 1.664-1.303 2.651-1.68.987-.376 2.039-.552 3.095-.515.103-.004.205-.006.308-.006 4.277 0 7.801 3.51 7.818 7.787v.061c-.176 4.339-3.785 7.816-8.127 7.83-4.342.013-7.974-3.438-8.181-7.775zm20.416-3.962h-1.752v-3.515h1.768v-.952c-.104-1.329.329-2.647 1.203-3.654.947-.845 2.198-1.271 3.464-1.179 1.028-.032 2.054.104 3.038.4v3.553c-.619-.244-1.279-.367-1.944-.365-.978 0-1.539.497-1.539 1.604v.593h3.451v3.484h-3.395v11.416h-4.286zm-255.678 10.852c1.239.151 2.486-.232 3.427-1.053.466-.406.841-.906 1.101-1.467.261-.56.401-1.169.411-1.787v-.08c0-2.806-1.941-4.297-5.072-4.297h-4.835v8.684zm58.546-.523c3.034 0 4.786-1.624 4.786-4.009v-.076c0-2.686-1.864-4.062-4.915-4.062h-6.213v8.163zm188.803-6.367v-.055c.02-.535-.068-1.069-.257-1.57-.585-1.538-2.059-2.567-3.704-2.588h-.049c-2.119 0-3.863 1.744-3.863 3.863l.007.295c-.04 1.081.358 2.133 1.102 2.917.746.783 1.778 1.232 2.859 1.245 1.639.023 3.123-1 3.683-2.541.181-.501.257-1.034.222-1.566z" fill="#2e2e2b" fill-rule="nonzero" transform="matrix(.979697 0 0 .971829 0 -64.9003)"/></svg>