<svg clip-rule="evenodd" fill-rule="evenodd" stroke-linejoin="round" stroke-miterlimit="2" viewBox="0 0 220 284" xmlns="http://www.w3.org/2000/svg"><path d="m109.901 284c-16.925-.054-33.508-4.791-47.909-13.681-14.112-8.755-26.128-20.498-35.2-34.401-17.407-25.799-26.792-59.027-26.792-93.819s9.385-68.218 26.792-93.819c9.063-13.965 21.08-25.774 35.2-34.599 14.442-8.799 30.997-13.529 47.909-13.681 16.97.177 33.587 4.902 48.107 13.681 14.034 8.936 26.025 20.724 35.2 34.599 17.209 25.601 26.792 59.027 26.792 93.819s-9.583 68.02-26.792 93.819c-9.175 13.817-21.17 25.539-35.2 34.401-14.487 8.861-31.12 13.595-48.107 13.681zm0-283.416c-16.863.062-33.384 4.8-47.715 13.686-14.005 8.738-25.948 20.407-35.003 34.203-17.209 25.606-26.598 58.834-26.598 93.626s9.389 67.822 26.598 93.428c9.055 13.796 20.998 25.465 35.003 34.203 14.306 8.948 30.84 13.694 47.715 13.694 16.876 0 33.409-4.746 47.715-13.694 14.006-8.738 25.948-20.407 35.008-34.203 17.209-25.606 26.787-58.834 26.787-93.428 0-34.599-9.578-68.02-26.787-93.626-9.06-13.796-21.002-25.465-35.008-34.203-14.33-8.886-30.848-13.624-47.715-13.686zm0 280.485c-16.373-.115-32.404-4.712-46.344-13.294-13.807-8.541-25.556-20.02-34.418-33.615-16.818-25.214-26.207-57.858-26.207-92.061 0-34.208 9.389-67.045 26.207-92.259 8.915-13.554 20.656-25.021 34.418-33.619 13.931-8.681 30.025-13.282 46.443-13.282s32.512 4.601 46.443 13.282c13.659 8.66 25.325 20.119 34.224 33.619 17.012 25.214 26.203 58.051 26.203 92.259 0 34.203-9.191 66.847-26.203 92.061-8.841 13.546-20.515 25.017-34.224 33.615-14.014 8.582-30.107 13.175-46.542 13.294zm0-277.55c-16.307.136-32.268 4.733-46.15 13.291-13.684 8.478-25.305 19.896-34.027 33.421-17.012 25.021-26.203 57.66-26.203 91.868 0 34.203 9.191 66.649 26.203 91.666 8.722 13.529 20.343 24.947 34.027 33.425 13.828 8.673 29.826 13.274 46.15 13.274 16.328 0 32.322-4.601 46.151-13.274 13.7-8.528 25.375-19.933 34.224-33.425 16.818-25.017 26.01-57.656 26.01-91.666s-9.192-66.847-26.01-91.868c-8.849-13.488-20.524-24.893-34.224-33.421-13.874-8.574-29.839-13.176-46.151-13.291zm0 273.052c-15.624-.066-30.922-4.466-44.194-12.702-13.157-8.248-24.366-19.254-32.854-32.253-16.426-24.432-25.424-56.289-25.424-89.517s8.998-65.283 25.424-89.715c8.488-12.999 19.697-24.005 32.854-32.253 13.239-8.31 28.558-12.718 44.194-12.718s30.955 4.408 44.195 12.718c13.157 8.248 24.366 19.254 32.853 32.253 16.427 24.432 25.424 56.289 25.424 89.715 0 33.421-8.997 65.085-25.424 89.517-8.487 12.999-19.696 24.005-32.853 32.253-13.273 8.236-28.571 12.636-44.195 12.702zm101.126-151.118c-2.479-27.103-10.971-52.527-24.465-72.678-8.491-12.945-19.705-23.885-32.854-32.055-13.157-8.179-28.315-12.575-43.807-12.706-13.227.112-26.208 3.333-37.908 9.362l9.749 16.243-3.323 7.623c-1.581.868-3.373 1.272-5.172 1.169-1.796-.103-3.529-.712-4.999-1.754.197-.979.588-1.955.782-2.934.082-.7-.021-1.412-.292-2.062-.276-.651-.713-1.219-1.273-1.651-.362-.189-.762-.288-1.173-.288-.408 0-.812.099-1.174.288l-.782.782 1.371-5.277 1.565.391c.831.264 1.606.692 2.269 1.264s1.206 1.272 1.589 2.058.601 1.642.647 2.515c.041.872-.095 1.745-.4 2.568.906.56 1.94.873 3.006.91 1.063.033 2.117-.214 3.056-.716l1.371-3.128-8.215-13.484 1.039-4.331c-1.88.98-3.727 2.033-5.536 3.158-1.32.825-2.621 1.679-3.9 2.56.275.472.67.86 1.145 1.132.482.275 1.025.415 1.581.411 1.071-.181 2.047-.728 2.764-1.547.712-.819 1.116-1.861 1.148-2.947.396.794.589 1.675.556 2.564-.037.889-.292 1.753-.753 2.515-.326.65-.783 1.222-1.343 1.687-.556.461-1.206.807-1.902 1.009-.7.201-1.429.255-2.15.164-.72-.094-1.412-.337-2.034-.708l.968-4.267c-11.4 7.848-21.169 17.861-28.74 29.482-16.427 24.234-25.42 56.096-25.42 89.324 0 11.716 1.118 23.238 3.286 34.318l2.973-.699c.19-.095.35-.235.478-.404.127-.168.214-.366.251-.576.037-.206.029-.424-.033-.625-.058-.202-.165-.391-.309-.548l3.719 2.544c.074.588-.066 1.185-.387 1.683-.322.502-.807.873-1.376 1.054l-2.149.391-3.083-2.397c4.001 20.179 11.489 38.875 22.05 54.583 8.479 12.887 19.614 23.815 32.66 32.055 13.145 8.174 28.319 12.508 43.803 12.508s30.659-4.334 43.807-12.508c13.104-8.232 24.305-19.16 32.854-32.055 16.229-24.432 25.223-56.096 25.223-89.324 0-4.28-.15-8.537-.444-12.753-.512-.115-.991-.343-1.405-.665-.478-.379-.853-.873-1.083-1.437-.408-1.93-.606-3.893-.585-5.865.193-.193 0-.391-.198-.584h-.391c-.136.041-.259.111-.367.205-.103.095-.185.21-.243.342-.053.132-.082.272-.078.412s.037.28.103.407c-.988-.358-1.816-1.049-2.347-1.955.716-1.037 1.651-1.906 2.738-2.539l2.735 2.148zm-94.866 129.62 3.323-3.519.589 14.27-3.328 2.342c-.498-1.272-1.289-2.416-2.306-3.33-1.017-.918-2.236-1.584-3.558-1.947v3.326l-3.327 2.342c.041-1.087-.231-2.161-.787-3.095-.556-.939-1.367-1.692-2.339-2.182.828-.757 1.746-1.416 2.735-1.955v-4.494c-.181-.358-.462-.659-.807-.865-.346-.21-.746-.317-1.145-.308h-.98l3.521-3.911c.753.486 1.4 1.116 1.906 1.853.503.741.853 1.572 1.026 2.449v4.885c2.03.774 3.936 1.824 5.67 3.128l-.391-9.186zm-18.774 11.335c.061-.139.09-.292.082-.444-.008-.156-.049-.305-.128-.436-.074-.136-.181-.247-.309-.334-.127-.082-.275-.136-.428-.152l-3.912 1.366c-1.025-1-1.709-2.3-1.956-3.712l2.545-9.775-7.042-1.758c.387.412.659.914.795 1.461.14.548.136 1.124-.012 1.667l-1.368 5.277c.182.671.597 1.255 1.17 1.65.572.391 1.264.568 1.96.498l-4.303 2.544-2.348-4.301 1.565-6.45c.132-.658.066-1.338-.197-1.955l-1.565-1.564 4.11-2.54 11.341 3.129-3.13 11.726c.041.239.136.465.268.667.135.201.313.374.514.506l3.521-1.173 1.956-7.429 4.106-2.54-2.739 10.944-1.173.391c.136.042.259.116.366.21.103.095.19.21.243.342.058.127.083.267.078.411-.004.14-.037.28-.098.408v1.173l-3.912 1.367zm33.438-9.771c.37.461.617 1.005.72 1.585s.058 1.177-.131 1.737l-3.324 6.647c-1.284-.325-2.479-.93-3.492-1.774-1.017-.848-1.828-1.91-2.376-3.116l1.174-4.103c.078-.552-.062-1.112-.391-1.564-.223-.309-.515-.56-.857-.729-.342-.173-.721-.255-1.099-.247l-.976.391 2.343-4.494c.704.16 1.363.473 1.939.909.573.441 1.046.996 1.388 1.63.194.502.194 1.062 0 1.564-.42 1.544-.745 3.108-.98 4.692.317.77.795 1.466 1.4 2.038.61.576 1.33 1.012 2.121 1.284l1.174-1.955c-.042-.416-.173-.815-.392-1.173l-1.956-1.955c-.284-.272-.49-.614-.593-.992-.103-.379-.103-.778.009-1.157l1.758-6.841 6.259-1.955c.107.675.017 1.367-.259 1.993-.276.625-.733 1.152-1.306 1.527l-3.718 1.168-.585 2.153c.041.416.173.815.391 1.173zm-1.284-1.794c.18-.734.53-1.42 1.024-2.001.589-.691 1.355-1.206 2.216-1.481.65-.268 1.379-.276 2.034-.021s1.19.749 1.487 1.387l2.149 6.841-2.149 4.301-3.13-9.775c-.544-.383-1.219-.536-1.878-.428-.659.111-1.248.477-1.639 1.016-.046.048-.083.103-.114.161-.034.14-.062.281-.083.424-.009-.103.004-.21.037-.313.012-.038.028-.075.046-.111zm-57.077-2.44c-.075.028-.147.063-.214.106-.152.095-.28.222-.374.37-.091.153-.153.321-.169.498-.021.177 0 .354.061.523.124.309.342.568.622.745.284.173.61.255.943.231.581-.107 1.116-.391 1.536-.807.42-.42.7-.955.812-1.539-.342-3.618-1.932-7.002-4.497-9.574l4.69-1.371 9.192 5.277-4.695 1.37-3.323-1.955c.708 1.305 1.14 2.742 1.276 4.219.136 1.478-.033 2.968-.494 4.38v-.194c-2.112 1.301-4.34 2.412-6.646 3.322-1.627-1.038-2.809-2.639-3.328-4.495l4.608-1.106c.091-.033.186-.056.28-.067zm77.526.715-1.174 4.692-6.646-11.339-6.062 3.519 1.367-4.692 5.868-3.515zm-1.956-14.463 6.453-5.277 7.433 8.989v6.45c-1.565 1.189-3.517 1.749-5.477 1.564l.391-4.692c.173.411.478.753.869.967s.844.284 1.285.206l.584-.391v-1.367l-5.476-6.84-6.453 5.276zm-49.28 7.034 3.129-1.758 9.192 2.346c-.264.548-.684 1.005-1.203 1.317-.523.309-1.124.466-1.729.441-1.985-.222-3.908-.819-5.671-1.758-.197-.197-.391 0-.589.194h-.193c0 .313.123.609.342.831.222.218.519.342.832.342-.808.646-1.738 1.115-2.739 1.37-.737-.971-1.211-2.115-1.371-3.325zm-41.456-2.733h-4.888l7.037-7.429c.285-.556.482-1.149.589-1.758.046-.823-.16-1.642-.589-2.346h4.889l8.413 8.207-8.998 9.384h-4.888l8.993-9.577-5.081-4.886c.074.589.029 1.19-.14 1.762s-.453 1.103-.84 1.56zm-10.594-55.068c-4.803-14.079-7.204-29.582-7.204-45.789 0-26.976 7.042-52.581 19.947-71.733 12.906-19.155 31.289-30.882 50.454-30.882s37.157 10.945 50.454 30.882c13.297 19.934 20.141 44.563 20.141 71.733 0 27.169-7.235 52.383-20.141 71.732-3.948 5.919-8.408 11.088-13.245 15.41l.059-.028c1.915-.902 4.052-1.223 6.144-.918l-1.367 4.692c-.647-.617-1.466-1.025-2.347-1.173l-2.932.584c-1.516.951-2.735 2.305-3.521 3.911.914.094 1.832-.037 2.685-.375.813-.326 1.54-.836 2.121-1.486l.082-.288v.194c-.027.031-.055.063-.082.094l-1.092 3.816c-.869.539-1.861.86-2.882.926-1.026.07-2.047-.116-2.982-.535.19-1.84.721-3.631 1.565-5.277.17-.281.352-.554.545-.817-10.058 7.716-21.485 11.955-33.205 11.955-19.165 0-37.157-10.945-50.454-30.685-5.255-7.801-9.471-16.427-12.65-25.674-.273.825-.815 1.599-1.623 1.436-.201 1.008-.757 1.909-1.564 2.543l-13.689 4.104-6.457-3.322c.317-1.564.845-3.074 1.565-4.494l-3.517-2.153c.346-1.247.964-2.4 1.808-3.379.849-.98 1.899-1.762 3.08-2.289l4.106 1.173c.527.136 1.087.066 1.565-.197.585-.585 1.174-1.173.976-2.149-.054-.292-.189-.564-.391-.782l4.501 2.346c-.429 1.375-1.33 2.552-2.545 3.322h-1.565c-1.54-.482-3.105-.873-4.69-1.173-1.751.77-3.147 2.165-3.913 3.91l1.174.589 9.974-2.935 3.517 2.544-10.95 3.321c-.675.63-1.153 1.445-1.367 2.346l.976.391 14.277-4.301c.391 0 .585-.391.391-.584-1.05-.539-2.034-1.194-2.936-1.955-.799-.651-1.31-1.593-1.417-2.618-.111-1.025.19-2.05.832-2.857.152-.152.338-.267.54-.337.205-.066.42-.087.634-.054.704.099 1.367.387 1.919.836.547.449.967 1.037 1.21 1.704l1.368 4.692c.16.157.354.276.564.35s.432.103.655.086c.222-.02.436-.086.634-.193.095-.055.184-.118.265-.19zm63.197-147.819c-18.967 0-36.765 10.944-49.865 30.491-13.103 19.546-19.947 44.563-19.947 71.539 0 26.972 7.042 52.186 19.947 71.341 12.906 19.156 30.898 30.491 49.865 30.491 18.968 0 36.766-10.751 49.869-30.491 13.099-19.74 19.944-44.563 19.944-71.341 0-26.779-7.038-52.384-19.944-71.539-12.91-19.156-30.901-30.491-49.869-30.491zm0 199.952c-36.374 0-65.9-43.979-65.9-97.922 0-53.948 29.526-98.12 65.9-98.12s66.098 43.979 66.098 98.12-29.724 97.922-66.098 97.922zm65.905-12.117.584 4.885-10.167-8.404-2.154 2.543.589 1.56c0 .391.391.589.783.782l2.347.391c.576.19 1.095.519 1.507.963.408.445.7.988.836 1.581l.782 7.232c-1.247.452-2.582.617-3.899.481-1.322-.136-2.595-.568-3.727-1.263-.301-1.392-.692-2.766-1.174-4.104-.082-.28-.234-.531-.436-.737-.206-.201-.457-.354-.733-.436-.346-.16-.725-.226-1.104-.193s-.741.168-1.05.386l-.585.783-.391-4.886c.659-.255 1.367-.371 2.071-.338.709.037 1.401.214 2.035.531.218.165.399.367.535.605.136.235.218.494.247.766.465 1.543 1.054 3.046 1.759 4.495 1.387.897 3.063 1.247 4.694.975v-2.342c-.091-.202-.222-.374-.395-.51-.169-.136-.371-.231-.581-.272l-2.738-.589c-.379-.078-.733-.242-1.038-.481-.305-.235-.552-.539-.725-.885l-2.149-6.841 4.105-5.083zm-42.438 5.054-1.954-48.642h-43.021l-1.955 48.629c7.29 4.194 15.201 6.492 23.463 6.492 8.255 0 16.17-2.294 23.467-6.479zm-77.829-6.227c.227.35.346.757.346 1.173s-.119.823-.346 1.173l-6.259 4.885c-1.132-2.741-1.202-5.807-.198-8.598-1.531 1.317-2.619 3.079-3.109 5.038s-.358 4.021.371 5.907l4.892.584 5.864-4.688c.935-.556 1.689-1.367 2.174-2.338.486-.967.68-2.058.565-3.136l-5.28-.782c.404.148.746.42.98.782zm78.401 5.895c24.211-14.274 41.474-49.43 41.474-90.527 0-53.75-29.336-97.536-65.513-97.536-35.983 0-65.315 43.786-65.315 97.536 0 41.081 17.134 76.226 41.277 90.511l1.941-48.294h-2.15v-3.128h-2.545c-.527-.292-.996-.692-1.367-1.173l-5.477-5.668h1.956l1.565-.782 3.13-3.124 1.174-.786h1.564v-3.124h2.932v-3.326h-6.259v-3.124c-1.952-.391-13.297-2.737-13.297-17.982 0-15.246 11.345-17.201 13.297-17.398v-3.124h9.191v-1.762l-.391-.391h-2.734v-1.955h-1.565l-1.174-.782-3.912-3.515h1.759c.197-.198.782-.391.782-.589l2.347-1.757c0-.198.392-.391.783-.589h.98v-2.148h9.578v-1.564h-2.149v-1.955h-1.565c-.585-.194-.976-.782-1.174-.782l-3.714-3.911h.976s.197.198.589 0l.976-.391 2.153-2.148.783-.391h.976v-1.955h8.017v-1.564h-1.956v-1.955h-1.564l-.976-.782-3.715-4.104h1.565l.976-.391 1.956-2.148.782-.589h.976v-2.149h3.715v-1.366c-.012-.152-.078-.292-.194-.391h-1.758v-1.762h-.391l-.783-.584-1.565-2.153h.392l.584-.391.589-.584c1.034-1.774 1.82-3.684 2.348-5.668.609-1.782 1.07-3.614 1.367-5.474-.128-.169-.198-.375-.198-.585h-.193l4.105-4.889 4.11 4.889h-.198c0 .21-.07.416-.193.585 0 .197.391 1.564 1.367 5.474.683 1.959 1.536 3.853 2.541 5.668l.98.975h.391l-1.565 2.153-.782.584h-.391v1.762h-1.763c-.111.099-.181.239-.194.391v1.366h3.715v2.149h.98l.782.589 2.15 2.148.782.391h1.565l-3.714 4.104c0 .197-.391.588-.98.782h-1.565v1.955h-1.956v1.564h8.018v1.955h1.173l.589.391 2.15 2.148.976.391c.127.054.259.083.395.083.132 0 .264-.029.391-.083h.779l-3.715 3.911-1.174.782h-1.564v1.955h-2.15v1.564h9.385v2.148h1.174c.391.198.782.391.782.589l2.154 1.757.976.589h1.762l-4.11 3.515-.976.782h-1.762v1.955h-2.734l-.392.391v1.762h9.385v3.124c1.956.197 13.297 2.346 13.297 17.398 0 15.048-11.341 17.591-13.297 17.982v3.124l-6.061.198v3.321h2.738v3.129h1.758l.981.588 3.323 3.322 1.367.782h1.956l-5.279 5.667-1.565 1.173h-2.541v2.931h-2.154zm-86.031-23.487-4.691-1.173 5.864 10.167-5.081 2.93c.774-2.329.976-4.807.585-7.232l-7.821-2.152c-.93.679-1.696 1.56-2.24 2.576-.535 1.005-.839 2.123-.888 3.262l-.001.027 5.081.98-.976-.98c-.119-.609-.111-1.235.025-1.84.132-.605.391-1.177.758-1.679l2.738.782c.19 1.79-.028 3.597-.638 5.293-.609 1.692-1.598 3.223-2.883 4.482l4.695 1.367 11.341-6.643zm122.811 11.533c1.746.07 3.488-.263 5.086-.979v3.91c1.779-.009 3.537-.395 5.155-1.136 1.619-.741 3.06-1.82 4.23-3.165l-.783-8.208-10.167-5.865 1.173 4.692 7.236 4.104v2.935c-1.33 1.642-3.204 2.749-5.28 3.124l-.391-5.471-.782.976c-1.153.971-2.603 1.523-4.11 1.564-.391 0-.782-.193-.782-.584l.589-.783c.16-.156.35-.275.56-.349s.436-.103.658-.087c.223.021.437.087.631.194.197.107.366.259.498.436l-.98-4.104-2.541.782c-.82.367-1.503.984-1.956 1.758zm-137.084-11.142-4.695-1.757 11.93-5.277-2.738-6.256 4.694 1.757 2.739 6.257zm158.79-4.692-11.93-5.668-2.932 6.257-1.565-4.495 2.739-6.256 11.929 5.474zm3.912-22.671-12.515-3.712-3.327 11.138 2.154 4.301 3.521-11.142 5.67 1.762c-2.294.901-4.316 2.383-5.868 4.297l3.912 7.235c1.095.186 2.216.144 3.294-.127 1.067-.266 2.068-.75 2.941-1.421l.02-.016-2.54-4.301c.028.399-.038.803-.194 1.173-.313.507-.741.93-1.252 1.235-.511.309-1.087.486-1.684.523l-1.367-2.54c1.19-1.342 2.676-2.391 4.336-3.066 1.659-.679 3.455-.967 5.246-.844zm-156.447 3.52c-.375-1.305-.235-2.709.391-3.911l.589.391c.791 1.754 1.38 3.59 1.759 5.475-.569-.116-1.104-.35-1.578-.688-.473-.337-.869-.769-1.161-1.267zm135.132-2.544 1.956 3.91c1.442-.329 2.698-1.206 3.501-2.449.807-1.239 1.091-2.745.798-4.198-.205-.864-.617-1.671-1.194-2.35-.576-.679-1.305-1.215-2.129-1.556.692.868 1.05 1.955 1.013 3.062-.037 1.111-.465 2.173-1.206 2.996-.363.334-.807.564-1.289.667s-.984.078-1.45-.082zm-41.46.782h-47.324v-2.54h47.324zm4.11-4.301c-.305.42-.708.753-1.174.979h-53.192c-.465-.226-.869-.559-1.174-.979l-3.912-4.104h63.36zm51.038-1.951c1.672-.498 3.208-1.367 4.497-2.544l1.367 3.519c1.681-.559 3.213-1.481 4.497-2.696 1.285-1.214 2.286-2.696 2.936-4.338l-3.52-7.627-11.539-2.148 2.738 4.103 8.216 1.564 1.173 2.544c-.733 2.013-2.108 3.729-3.912 4.886l-2.347-5.083c-.041.415-.173.819-.391 1.173-.704 1.313-1.899 2.296-3.323 2.737-.392.193-.783 0-.783-.198-.033-.337.037-.675.194-.975.099-.21.243-.395.424-.54.177-.148.387-.251.614-.308.222-.058.457-.062.683-.017.227.046.441.14.626.276l-2.347-3.515-2.15 1.564c-.679.63-1.153 1.445-1.367 2.342zm-154.882-10.751 1.565 8.207-12.317 2.544-4.892-4.108c-.111-1.3.161-2.605.787-3.754.63-1.148 1.577-2.086 2.734-2.696.675-.061 1.355.075 1.956.391l1.367.392c.4-.091.75-.313 1.001-.634s.379-.721.37-1.124c.029-.276-.041-.552-.197-.782l3.521 2.346c0 .391 0 .585-.194.782-.375.663-.988 1.157-1.721 1.379-.729.218-1.516.144-2.191-.206-.292-.173-.618-.28-.955-.313-.338-.033-.68.004-1.001.116-.754.337-1.396.889-1.849 1.58-.449.696-.692 1.502-.692 2.33l.976.782 9.192-1.762-1.565-8.014zm101.69 3.519.98.585 3.324 3.128c.387.366.856.634 1.367.782h-62.38l1.367-.782 3.13-3.128.976-.585zm-1.956-.786h-47.324v-2.54h47.324zm-2.738-3.124h-41.847v-3.326h41.456zm-47.909-6.45h53.975v2.54h-53.975zm-13.297-17.982c0-16.028 12.514-16.81 12.906-16.81h54.757c.391 0 12.906.976 12.906 16.81 0 15.83-12.515 17.394-12.906 17.394h-54.757s-12.906-1.564-12.906-17.394zm133.954 0c-.564-.445-1.243-.716-1.956-.782h-.782c-.013-.338.053-.671.197-.98-.102-.642-.374-1.251-.782-1.757l-3.718-3.713-3.715 3.713c-.412.506-.679 1.115-.782 1.757.045.329.111.659.197.98h-.98c-.646.103-1.252.37-1.758.782l-3.719 3.712 3.719 3.713c.506.412 1.112.683 1.758.782h.98v.782c.066.716.338 1.391.783 1.955l3.714 3.519 3.715-3.519c.444-.564.716-1.239.782-1.955-.156-.226-.226-.506-.194-.782h.783c.712-.066 1.392-.338 1.952-.782l3.718-3.713zm-173.26 0c-.474-.465-1.1-.745-1.763-.782h-.976c.185-.288.255-.638.194-.98.197-.782-.783-1.757-.783-1.757l-3.714-3.713-3.521 3.713s-.976.975-.782 1.757c-.058.342.012.692.197.98h-.98c-.663.037-1.285.317-1.758.782l-3.715 3.712 3.715 3.713c.473.465 1.095.745 1.758.782h.98c-.156.23-.226.506-.197.782-.017.362.045.724.181 1.062.131.337.337.642.601.893l3.521 3.519 3.714-3.519c.264-.251.47-.556.606-.893.131-.338.193-.7.177-1.062.028-.276-.042-.552-.194-.782h.976c.663-.037 1.289-.317 1.763-.782l3.714-3.713zm-7.042 8.796c-1.351 0-2.644-.536-3.595-1.49-.956-.951-1.491-2.244-1.491-3.594.235-1.201.881-2.284 1.824-3.062.947-.778 2.133-1.202 3.361-1.202 1.223 0 2.409.424 3.356 1.202.943.778 1.589 1.861 1.824 3.062-.049 1.367-.63 2.659-1.614 3.606s-2.298 1.478-3.665 1.478zm173.261 0c-1.347 0-2.64-.536-3.595-1.49-.952-.951-1.487-2.244-1.487-3.594-.029-.675.082-1.346.329-1.975.247-.63.618-1.202 1.096-1.68.477-.477 1.05-.852 1.68-1.094.63-.247 1.301-.359 1.977-.334 1.35 0 2.643.535 3.595 1.49.955.955 1.49 2.247 1.49 3.593 0 .667-.132 1.33-.387 1.947-.255.613-.63 1.177-1.103 1.647-.47.473-1.03.847-1.648 1.103-.617.255-1.28.387-1.947.387zm-173.068-1.762c1.837 0 3.328-1.486 3.328-3.322 0-1.835-1.491-3.321-3.328-3.321-1.832 0-3.323 1.486-3.323 3.321 0 1.836 1.491 3.322 3.323 3.322zm173.068 0c1.836 0 3.327-1.486 3.327-3.322 0-1.835-1.491-3.321-3.327-3.321-1.837 0-3.324 1.486-3.324 3.321 0 1.836 1.487 3.322 3.324 3.322zm-4.519-27.182c-.256-.198-.576-.287-.897-.251-.333.037-.634.202-.84.461-.21.259-.304.589-.267.922.037.329.201.63.461.836.193.247.428.452.7.605.272.156.572.251.881.288s.622.012.923-.074c.3-.087.58-.231.819-.428 2.636-2.49 4.357-5.796 4.892-9.381l3.908 3.129 1.372 10.359-3.913-2.934-.584-3.713c-.565 1.367-1.417 2.597-2.496 3.61-1.079 1.012-2.364 1.778-3.764 2.255l-6.65-3.325c-.066-.951.053-1.906.354-2.812.3-.905.782-1.745 1.408-2.465l3.715 2.935zm-160.918-9.368-13.103-1.757-1.565 11.142 5.477 5.276c3.628.037 7.247-.419 10.752-1.37l-2.735-3.519c-1.231.778-2.656 1.181-4.109 1.173-.276-.111-.515-.297-.688-.54-.173-.242-.272-.53-.288-.827 0-.465.185-.914.514-1.243.33-.329.779-.514 1.244-.514l-2.541-3.326c-.84.934-1.322 2.132-1.359 3.387-.033 1.252.379 2.478 1.162 3.454h-2.932l-.976-.976.976-8.211 13.103 1.762zm105.796 9.578v2.54h-53.975v-2.54zm-44.59-1.955c-.008-.272-.074-.539-.194-.782h35.592c-.119.243-.185.51-.198.782v1.371h-35.2zm-3.323-2.737h41.847v1.371h-41.847zm-1.956-.782-.976-.585-2.545-2.346h52.801l-2.541 2.346-.783.585zm113.619-10.751.976 4.499-12.712 2.93-4.106-2.539 12.713-2.935-.392-1.56-2.932-1.955c.655-.531 1.149-1.23 1.425-2.025.276-.794.326-1.65.136-2.474l-1.367-.777c-2.895.765-5.444 2.486-7.235 4.885l1.367.782c.206.091.428.14.65.14.223 0 .445-.045.651-.14.202-.09.383-.226.531-.395.149-.169.256-.37.321-.584.186-.289.256-.638.194-.976l3.521 2.346c-.848.922-1.981 1.544-3.22 1.754-1.24.214-2.516.008-3.624-.581l-4.497-2.934c2.335-3.12 5.526-5.499 9.191-6.841l7.038 2.93c.235.869.189 1.791-.124 2.631-.317.839-.889 1.564-1.634 2.062zm-113.619 5.281.588-.391h44.78l.588.391 2.15 1.955h-50.454zm1.956-2.544h41.847v1.564h-41.847zm9.582-2.148h22.686v1.564h-22.686zm-70.792-17.983-2.348-4.301 10.757 3.128.391 1.173c.09-.276.28-.51.535-.654.251-.144.548-.19.836-.128l1.17.391 1.173 3.91h-1.173c-.124-.061-.264-.099-.404-.103-.144-.004-.284.025-.416.079-.127.057-.247.14-.342.247-.094.102-.164.226-.206.362l1.368 4.107c-2.158 1.371-4.543 2.363-7.038 2.931-1.322-1.972-2.759-3.865-4.303-5.668-.289-.16-.63-.21-.952-.135-.325.069-.613.259-.807.526l-2.347 8.405c.437-.346.939-.597 1.478-.728.54-.136 1.104-.153 1.652-.054l5.279 1.564c.334-.049.659-.164.947-.337.292-.173.544-.404.745-.679.202-.272.346-.581.425-.91.078-.329.09-.671.033-1.009l2.347 4.104-4.106 2.346-6.65-1.951c-.696-.119-1.413-.016-2.047.301s-1.149.827-1.47 1.457l-2.347-4.301 2.932-10.163c.44-.609 1.033-1.095 1.721-1.403.684-.309 1.441-.432 2.191-.358.267.028.531.115.766.247.234.135.44.317.601.535 1.342 1.411 2.586 2.914 3.714 4.498 1.524-.349 2.978-.942 4.304-1.761l-.976-3.519zm68.643 16.028h26.985v1.366h-26.985zm-1.956-.782-.783-.585-2.347-2.346h37.35l-2.347 2.346-.976.585zm-2.154-3.911 2.154-1.955c.057-.103.144-.193.247-.263.098-.066.218-.111.337-.124h29.724c.124.013.239.058.342.124.103.07.185.16.247.263l2.149 1.955.589.391h-36.374zm4.11-4.494h26.985v1.37h-26.985zm8.013-2.149h10.954v1.564h-10.954zm87.808-14.072-4.501-1.955 4.304 10.944-5.477 1.955c1.177-2.157 1.783-4.581 1.762-7.038l-7.626-3.124c-1.026.506-1.911 1.251-2.591 2.169-.674.907-1.125 1.963-1.317 3.081l-.004.027 4.888 1.564c-.198-.091-.371-.227-.507-.395-.14-.169-.23-.371-.276-.585-.094-.605-.037-1.227.169-1.807s.552-1.103 1.005-1.515l2.738 1.174c-.119 1.811-.634 3.572-1.515 5.161-.877 1.589-2.096 2.963-3.57 4.025l4.501 1.955 12.317-4.889-.585-1.169c.622.465 1.404.666 2.174.555.383-.053.75-.185 1.079-.378.334-.198.622-.457.852-.766.198-.21.35-.453.453-.724.099-.268.145-.552.136-.84l-4.501-1.955c.194.123.334.305.408.519.07.214.066.444-.016.654-.062.144-.153.272-.268.379-.111.103-.243.189-.391.243-.144.053-.301.078-.457.074-.153-.009-.305-.042-.449-.107zm-89.76 12.117h14.862v1.367h-14.862zm-1.956-.588-.782-.782-2.347-2.733h25.029l-2.343 2.733-.783.782zm0-6.45.585-.391h17.6l.589.391 2.15 2.153h-22.88zm-62.577-2.54 1.565 4.104c1.45-.193 2.775-.922 3.714-2.041.943-1.124 1.429-2.556 1.368-4.018-.075-.909-.383-1.782-.898-2.535s-1.215-1.362-2.034-1.766c.646.893.922 2.001.778 3.091-.148 1.091-.704 2.083-1.561 2.774-.42.301-.906.494-1.416.564-.515.07-1.034.009-1.516-.173zm64.533-.197h14.862v1.564h-14.862zm-73.922-4.104 1.565 4.104c.733-.045 1.445-.243 2.096-.576.651-.338 1.223-.807 1.684-1.375.457-.572.795-1.231.984-1.939.194-.704.235-1.444.124-2.169-.103-.876-.404-1.716-.877-2.461-.474-.745-1.108-1.375-1.861-1.836.646.889.926 1.996.778 3.087-.144 1.091-.704 2.083-1.561 2.774-.399.342-.885.56-1.408.626-.519.07-1.046-.012-1.524-.235zm77.637 2.153c-.025-.21-.091-.408-.198-.589h7.824c-.103.181-.169.379-.193.589v1.366h-7.433zm80.177-12.904-4.694-1.559 3.327 6.058-11.736 6.252 4.694 1.371 11.539-6.059zm-82.133 10.558h11.341v1.173h-11.341zm-1.367-.98-.783-1.173h15.644l-.782 1.173-.589.391h-12.906zm-66.472-22.086h-.018l-1.762.391 1.173 4.886c.013-.247.091-.486.231-.692.136-.21.329-.374.552-.481.284-.062.585-.017.836.127.255.144.445.379.535.655l-4.11 6.84 1.174 4.693 6.062-9.969 5.085 2.934c-2.437.359-4.735 1.371-6.646 2.931l1.952 8.014c1.042.49 2.178.741 3.327.741 1.14 0 2.264-.248 3.299-.73l.024-.011-1.758-4.886c.058.198.07.403.033.609-.033.202-.111.395-.231.564-.486.399-1.05.692-1.655.86-.605.169-1.24.21-1.865.116l-.585-2.931c1.478-.984 3.167-1.617 4.925-1.856 1.762-.235 3.554-.07 5.242.485l-.976-4.885-11.345-6.841-.585 1.173c-.049-.745-.379-1.44-.926-1.947-.54-.506-1.249-.786-1.988-.79zm66.472 19.547c1.054-1.791 1.906-3.692 2.54-5.668.597-1.918 1.055-3.881 1.367-5.865h6.458c.07 2.004.465 3.984 1.169 5.865.634 1.976 1.491 3.877 2.545 5.668l.585.782h-15.253zm70.005-4.495-4.888-.979 10.95-7.232-4.69-6.841h-1.565l-2.154 1.955c1.232.259 2.339.918 3.151 1.873.815.955 1.288 2.153 1.35 3.404l-4.11-.782c.182-.132.33-.301.441-.494.107-.194.173-.412.194-.634.016-.222-.013-.445-.087-.654-.078-.21-.193-.404-.35-.564-.193-.272-.469-.474-.782-.581-.317-.107-.659-.107-.98-.004-1.013 1.116-1.751 2.453-2.15 3.91l-4.497-.979c2.018-3.001 4.378-5.758 7.042-8.207l7.626.391 2.932 4.301c.285.062.581.016.836-.128.252-.144.441-.378.532-.654.028-.132.033-.264.008-.391-.025-.132-.074-.255-.148-.362-.074-.112-.169-.206-.276-.276-.111-.074-.235-.124-.367-.144l4.892.782c.132.588.062 1.21-.197 1.757-.148.362-.371.692-.647.972-.28.275-.613.494-.976.638-.366.144-.757.218-1.149.209-.395-.008-.782-.094-1.14-.255l1.956 2.737zm-59.838-7.82h-6.26l3.13-3.713zm-66.292-6.841c.63.012 1.244.218 1.759.589l5.085 4.297 4.888-.391-.391-4.886c-.226.663-.696 1.214-1.313 1.539-.618.33-1.339.408-2.01.223l-4.11-3.519c-1-.585-2.178-.795-3.323-.589l4.695-5.47 9.973 8.405-.391-4.89-10.171-8.405-7.429 8.994.391 4.885c.684-.494 1.503-.77 2.347-.782zm120.069-8.989-6.453 6.45c-.148-2.223-.68-4.404-1.565-6.45l3.521-3.326c.572-.695.98-1.519 1.182-2.403.206-.881.202-1.795-.008-2.676h-5.086l.782.585c.289.308.482.695.552 1.115.07.416.012.844-.161 1.231l-3.129 3.128c-1.124-.449-2.31-.712-3.517-.782.35 1.037.371 2.161.058 3.214-.317 1.05-.952 1.976-1.82 2.651l4.105.778 2.347-2.342c.593 1.259.882 2.638.849 4.029-.037 1.388-.391 2.754-1.042 3.985l4.106.782 10.167-9.776h-4.888zm-106.578-7.038-5.082 4.692.194-4.886 5.086-4.692 8.8 9.771-.198 4.886zm86.884-.14.335-.054c-.121 0-.233.019-.335.054l-4.553.728c.338 1.881 1.388 3.561 2.932 4.688 2.36-.708 4.649-1.621 6.844-2.737v.198c.581-1.359.881-2.824.881-4.301 0-1.478-.3-2.939-.881-4.302l3.13 2.153 4.694-.98-8.606-5.861-4.888.782c2.31 2.82 3.619 6.327 3.714 9.969-.128.585-.445 1.116-.906 1.503-.457.391-1.033.617-1.635.646-.296-.017-.584-.116-.827-.288-.243-.173-.429-.412-.54-.688-.167-.66.086-1.321.641-1.51zm-9.585-5.48c-.106.043-.204.103-.293.174-.127.107-.23.239-.304.383-.074.148-.116.313-.124.477-.008.165.021.33.083.482.041.161.119.309.222.436.107.128.235.231.383.305s.309.115.473.123c.165.005.33-.02.482-.082.606-.095 1.157-.403 1.553-.868.395-.47.609-1.062.601-1.676-.696-3.56-2.553-6.791-5.279-9.182l4.69-1.564 9.583 4.688-4.691 1.564-3.327-1.758c.791 1.235 1.318 2.614 1.552 4.063.235 1.444.173 2.922-.181 4.342-2.055 1.457-4.212 2.766-6.453 3.91-1.63-.996-2.87-2.511-3.521-4.301zm-47.575-14.318 4.501-1.564 3.908 12.512-2.344 4.495-3.912-12.508-1.565.391-1.564 3.124c-.635-.552-1.388-.951-2.204-1.153-.819-.206-1.671-.21-2.491-.016l-.585 1.56c1.055 2.749 2.887 5.128 5.28 6.845l.782-1.565c.091-.218.132-.452.119-.687-.008-.235-.074-.465-.185-.671-.115-.21-.272-.387-.465-.523-.19-.139-.412-.23-.643-.271h-.976l2.15-3.713c.947.786 1.614 1.861 1.894 3.063.284 1.197.165 2.457-.329 3.584l-2.541 4.689c-3.364-2.017-6.029-5.022-7.631-8.599l2.545-7.231c.828-.276 1.722-.293 2.558-.05.84.247 1.585.741 2.137 1.416zm33.244 5.083-1.565 6.45-4.105 2.737 2.347-9.969c-.017-.667-.148-1.329-.391-1.955-.387-.708-1.009-1.259-1.759-1.564l4.3-2.539 11.345 2.737-2.936 12.706-4.106 2.539 2.936-12.706-7.042-1.757c.383.457.671.983.84 1.555.165.573.214 1.174.136 1.766zm-22.682-3.519c.774 1.552 1.915 2.894 3.323 3.91l-3.323 2.149c.923 1.523 2.146 2.844 3.587 3.885 1.445 1.042 3.084 1.778 4.822 2.178l6.844-4.89v-11.727l-3.521 3.322v8.405l-2.347 1.761c-2.121-.411-4.044-1.51-5.477-3.128l4.695-3.128h-1.367c-1.388-.502-2.562-1.469-3.328-2.737-.193-.391-.193-.782.198-.975h.782c.239.065.462.181.655.337.19.157.346.35.457.572s.173.465.185.712c.009.247-.032.494-.123.725l2.932-2.935c-.498-.737-1.17-1.338-1.956-1.757-.63-.606-1.47-.955-2.347-.976z" fill="#010101"/></svg>